<?xml version="1.0" encoding="UTF-8" standalone="no"?>
<!-- Created with Inkscape (http://www.inkscape.org/) -->

<svg
   width="136.80788mm"
   height="34.708946mm"
   viewBox="0 0 136.80788 34.708946"
   version="1.1"
   id="svg1428"
   inkscape:version="1.1 (c4e8f9e, 2021-05-24)"
   sodipodi:docname="navbarIcon.svg"
   xmlns:inkscape="http://www.inkscape.org/namespaces/inkscape"
   xmlns:sodipodi="http://sodipodi.sourceforge.net/DTD/sodipodi-0.dtd"
   xmlns="http://www.w3.org/2000/svg"
   xmlns:svg="http://www.w3.org/2000/svg">
  <sodipodi:namedview
     id="namedview1430"
     pagecolor="#ffffff"
     bordercolor="#999999"
     borderopacity="1"
     inkscape:pageshadow="0"
     inkscape:pageopacity="0"
     inkscape:pagecheckerboard="0"
     inkscape:document-units="mm"
     showgrid="false"
     inkscape:zoom="1.0085043"
     inkscape:cx="250.86655"
     inkscape:cy="124.44171"
     inkscape:window-width="1440"
     inkscape:window-height="781"
     inkscape:window-x="0"
     inkscape:window-y="23"
     inkscape:window-maximized="0"
     inkscape:current-layer="layer1" />
  <defs
     id="defs1425" />
  <g
     inkscape:label="Camada 1"
     inkscape:groupmode="layer"
     id="layer1"
     transform="translate(-23.238435,-16.130241)">
    <path
       style="color:#000000;fill:#1c1c19;fill-opacity:1;stroke-width:0.3858;-inkscape-stroke:none"
       d="m 111.196,28.837532 0.75954,-8.758869 -2.96584,8.758869 z m -3.08038,2.592095 -1.3081,3.845945 h -2.73677 l 6.81178,-18.849954 h 3.72539 l -1.21166,18.849954 h -2.74882 l 0.33154,-3.845945 z m 0,0"
       id="path2425" />
    <g
       id="use2387"
       transform="matrix(0.38580015,0,0,0.38580015,113.77991,35.275573)"
       style="fill:#1c1c19;fill-opacity:1">
      <path
         style="color:#000000;-inkscape-stroke:none"
         d="m 25,-9.484375 c -1.460938,6.835937 -5.570312,10.257813 -12.328125,10.28125 -5.542969,0 -8.3125,-2.316406 -8.3125,-6.953125 0,-0.988281 0.128906,-2.097656 0.390625,-3.328125 L 11.109375,-39.375 c 1.457031,-6.832031 5.554687,-10.25 12.296875,-10.25 5.5625,0 8.34375,2.3125 8.34375,6.9375 0,1 -0.132812,2.105469 -0.390625,3.3125 L 28.8125,-27.421875 H 21.765625 L 24.3125,-39.375 c 0.07031,-0.394531 0.109375,-0.757812 0.109375,-1.09375 0,-1.457031 -0.828125,-2.195312 -2.484375,-2.21875 h -0.04687 c -2.03125,0 -3.277344,1.105469 -3.734375,3.3125 L 11.79688,-9.484375 c -0.08594,0.417969 -0.125,0.789063 -0.125,1.109375 0,1.46875 0.832031,2.203125 2.5,2.203125 2.050781,0 3.3125,-1.101563 3.78125,-3.3125 l 1.6875,-7.953125 h 7.0625 z m 0,0"
         id="path2429" />
    </g>
    <g
       style="fill:#1c1c19"
       id="g2397"
       transform="matrix(0.38580013,0,0,0.38580013,14.12206,-46.910929)">
      <g
         id="use2391"
         transform="translate(283.79239,213.0287)">
        <path
           style="color:#000000;-inkscape-stroke:none"
           d="M 19.46875,-16.6875 21.4375,-39.390625 13.75,-16.6875 Z M 11.484375,-9.96875 8.09375,0 H 1 L 18.65625,-48.859375 H 28.3125 L 25.171875,0 h -7.125 l 0.859375,-9.96875 z m 0,0"
           id="path2433" />
      </g>
      <g
         id="use2393"
         transform="translate(309.95865,213.0287)">
        <path
           style="color:#000000;-inkscape-stroke:none"
           d="M 21.3125,-23.78125 17.359375,-34.390625 10.03125,0.03125 H 3.234375 L 13.625,-48.828125 h 5.546875 l 4.78125,12.59375 10.15625,-12.59375 h 5.5625 L 29.28125,0.03125 H 22.484375 L 29.8125,-34.390625 Z m 0,0"
           id="path2437" />
      </g>
      <g
         id="use2395"
         transform="translate(342.50073,213.0287)">
        <path
           style="color:#000000;-inkscape-stroke:none"
           d="m 13.625,-48.859375 h 10.25 c 5.082031,0.02344 7.625,2.28125 7.625,6.78125 0,1.042969 -0.140625,2.210937 -0.421875,3.5 l -3.265625,15.34375 c -1.0625,5.054687 -4,8.308594 -8.8125,9.765625 -1.148438,0.34375 -2.75,0.515625 -4.8125,0.515625 H 13.046875 L 10.28125,0 H 3.234375 Z m 5.578125,6.953125 -4.6875,21.984375 h 1.625 c 0.976563,0 1.664063,-0.06641 2.0625,-0.203125 1.375,-0.507812 2.226563,-1.546875 2.5625,-3.109375 l 3.265625,-15.34375 c 0.101562,-0.425781 0.15625,-0.804687 0.15625,-1.140625 0,-1.457031 -0.835938,-2.1875 -2.5,-2.1875 z m 0,0"
           id="path2441" />
      </g>
    </g>
    <path
       style="color:#000000;fill:#19456e;stroke-width:0.174427;-inkscape-stroke:none"
       d="M 46.417002,41.885331 C 35.761956,46.844244 25.532068,47.441112 23.567036,43.219427 21.602684,38.997739 28.64723,31.555284 39.302286,26.597049 49.956668,21.638136 60.187224,21.041268 62.152267,25.262952 64.116604,29.48464 57.072055,36.926417 46.417002,41.885331"
       id="path2399" />
    <path
       style="color:#000000;fill:#d42b14;stroke-width:0.174427;-inkscape-stroke:none"
       d="M 68.581677,41.885331 C 57.926624,46.844244 47.696739,47.441112 45.731696,43.219427 43.766653,38.997739 50.811908,31.555284 61.466255,26.597049 72.121308,21.638136 82.351228,21.041268 84.316235,25.262952 86.281278,29.48464 79.236729,36.926417 68.581677,41.885331"
       id="path2401" />
    <path
       style="color:#000000;fill:#f5a326;stroke-width:0.174427;-inkscape-stroke:none"
       d="m 90.746175,41.885331 c -10.655053,4.958913 -20.885608,5.555781 -22.849981,1.334096 -1.965007,-4.221688 5.079541,-11.664143 15.734594,-16.622378 10.655053,-4.958913 20.884942,-5.555781 22.849982,-1.334097 1.96501,4.221688 -5.08021,11.663465 -15.734595,16.622379"
       id="path2403" />
    <path
       style="color:#000000;fill:#1c1c19;stroke-width:0.352778;stroke-miterlimit:10;-inkscape-stroke:none"
       d="m 120.56574,22.302593 c -4.15112,0.242394 -9.38098,1.634981 -14.71745,4.118267 -5.33614,2.483627 -9.769198,5.588217 -12.627647,8.607916 -1.429227,1.509849 -2.465109,2.998454 -3.022039,4.382849 -0.556931,1.384399 -0.633903,2.669801 -0.129533,3.753778 0.504546,1.084139 1.538069,1.853734 2.955889,2.319239 1.417821,0.465501 3.223726,0.63107 5.299248,0.509873 4.151042,-0.242394 9.380962,-1.634642 14.717452,-4.118268 5.33648,-2.483284 9.7692,-5.587439 12.62765,-8.607226 1.42922,-1.509893 2.46519,-2.999087 3.02203,-4.383539 0.55685,-1.384453 0.63409,-2.670492 0.12954,-3.754465 -0.50437,-1.083978 -1.5381,-1.853132 -2.95589,-2.318549 -1.41779,-0.465418 -3.22369,-0.631071 -5.29925,-0.509875 z m 0.011,0.184658 c 2.0595,-0.120259 3.84515,0.04597 5.23103,0.500917 1.38589,0.454945 2.36786,1.193845 2.84565,2.220708 v 7.05e-4 c 0.47797,1.026869 0.41133,2.253715 -0.13298,3.607015 -0.54431,1.3533 -1.56736,2.826764 -2.98552,4.324973 -2.83632,2.996417 -7.2526,6.092323 -12.57115,8.567264 -5.31856,2.475283 -10.5317,3.861213 -14.650614,4.101733 -2.05946,0.120258 -3.845115,-0.04658 -5.231034,-0.501608 -1.38592,-0.45503 -2.367675,-1.194354 -2.845651,-2.221395 -0.477795,-1.026869 -0.411416,-2.253767 0.132984,-3.607016 0.544399,-1.353252 1.567352,-2.826809 2.985519,-4.324975 2.83633,-2.996333 7.252936,-6.091982 12.571156,-8.567263 5.31854,-2.474944 10.53161,-3.860524 14.65061,-4.101042 z"
       id="path2405" />
    <path
       style="color:#000000;fill:#1c1c19;stroke-width:0.389393;-inkscape-stroke:none"
       d="m 97.773896,50.839187 c -0.107985,0.0014 -0.307234,-7.757445 -1.978907,-9.168997 -1.405502,-1.187955 -5.18989,-1.286824 -8.975831,-1.48456 4.140341,-0.150586 8.060161,-1.248798 8.586435,-1.902858 1.359852,-1.689906 2.217702,-5.495617 2.378957,-9.051878 0.244898,4.102323 0.687493,8.502774 1.695979,9.018413 3.463501,1.769004 8.943871,1.50586 8.946941,1.636674 0.004,0.13233 -7.60229,0.165795 -9.032137,2.051918 -1.556032,2.051921 -1.516486,8.899771 -1.621437,8.901288"
       id="path2407" />
    <g
       id="g2421"
       transform="matrix(0.16001942,0,0,0.16001942,-32.570151,-36.145711)">
      <g
         style="fill:#1c1c19"
         id="g2417"
         transform="translate(825.14823,242.74986)">
        <g
           id="use2409"
           transform="translate(212.8853,282.98129)">
          <path
             style="color:#000000;-inkscape-stroke:none"
             d="m 7.515625,-15.96875 c 1.207031,-5.625 5.039063,-10.441406 11.5,-14.453125 6.476563,-4.019531 10.023437,-7.429687 10.640625,-10.234375 l 2.078125,-9.71875 c 0.101563,-0.53125 0.15625,-1.007812 0.15625,-1.4375 0,-1.863281 -1.054687,-2.796875 -3.15625,-2.796875 h -0.0625 c -2.617187,0 -4.21875,1.414063 -4.8125,4.234375 l -1.78125,8.390625 H 13.0625 L 14.84375,-50.375 c 1.875,-8.769531 7.125,-13.15625 15.75,-13.15625 7.113281,0 10.671875,2.964844 10.671875,8.890625 0,1.292969 -0.171875,2.714844 -0.515625,4.265625 l -2.109375,9.9375 c -1.230469,5.742188 -5.085937,10.625 -11.5625,14.65625 -6.480469,4.023438 -10.046875,7.546875 -10.703125,10.578125 l -1.34375,6.3125 H 31.921875 L 30.046875,0 H 4.140625 Z m 0,0"
             id="path2445" />
        </g>
        <g
           id="use2411"
           transform="translate(247.07431,282.98129)">
          <path
             style="color:#000000;-inkscape-stroke:none"
             d="m 32.3125,-12.140625 c -1.875,8.75 -7.136719,13.125 -15.78125,13.125 -7.09375,0 -10.640625,-2.953125 -10.640625,-8.859375 0,-1.289062 0.171875,-2.710938 0.515625,-4.265625 l 8.125,-38.234375 c 1.863281,-8.769531 7.109375,-13.15625 15.734375,-13.15625 7.113281,0 10.671875,2.964844 10.671875,8.890625 0,1.292969 -0.167969,2.714844 -0.5,4.265625 z M 31.421875,-50.375 c 0.101563,-0.53125 0.15625,-1.007812 0.15625,-1.4375 0,-1.863281 -1.0625,-2.796875 -3.1875,-2.796875 h -0.0625 c -2.59375,0 -4.1875,1.414063 -4.78125,4.234375 l -8.125,38.234375 c -0.105469,0.53125 -0.15625,1.011719 -0.15625,1.4375 0,1.867187 1.0625,2.796875 3.1875,2.796875 2.625,0 4.238281,-1.410156 4.84375,-4.234375 z m 0,0"
             id="path2449" />
        </g>
        <g
           id="use2413"
           transform="translate(280.61087,282.98129)">
          <path
             style="color:#000000;-inkscape-stroke:none"
             d="m 7.515625,-15.96875 c 1.207031,-5.625 5.039063,-10.441406 11.5,-14.453125 6.476563,-4.019531 10.023437,-7.429687 10.640625,-10.234375 l 2.078125,-9.71875 c 0.101563,-0.53125 0.15625,-1.007812 0.15625,-1.4375 0,-1.863281 -1.054687,-2.796875 -3.15625,-2.796875 h -0.0625 c -2.617187,0 -4.21875,1.414063 -4.8125,4.234375 l -1.78125,8.390625 H 13.0625 L 14.84375,-50.375 c 1.875,-8.769531 7.125,-13.15625 15.75,-13.15625 7.113281,0 10.671875,2.964844 10.671875,8.890625 0,1.292969 -0.171875,2.714844 -0.515625,4.265625 l -2.109375,9.9375 c -1.230469,5.742188 -5.085937,10.625 -11.5625,14.65625 -6.480469,4.023438 -10.046875,7.546875 -10.703125,10.578125 l -1.34375,6.3125 H 31.921875 L 30.046875,0 H 4.140625 Z m 0,0"
             id="path2453" />
        </g>
        <g
           id="use2415"
           transform="translate(314.79987,282.98129)">
          <path
             style="color:#000000;-inkscape-stroke:none"
             d="m 7.515625,-15.96875 c 1.207031,-5.625 5.039063,-10.441406 11.5,-14.453125 6.476563,-4.019531 10.023437,-7.429687 10.640625,-10.234375 l 2.078125,-9.71875 c 0.101563,-0.53125 0.15625,-1.007812 0.15625,-1.4375 0,-1.863281 -1.054687,-2.796875 -3.15625,-2.796875 h -0.0625 c -2.617187,0 -4.21875,1.414063 -4.8125,4.234375 l -1.78125,8.390625 H 13.0625 L 14.84375,-50.375 c 1.875,-8.769531 7.125,-13.15625 15.75,-13.15625 7.113281,0 10.671875,2.964844 10.671875,8.890625 0,1.292969 -0.171875,2.714844 -0.515625,4.265625 l -2.109375,9.9375 c -1.230469,5.742188 -5.085937,10.625 -11.5625,14.65625 -6.480469,4.023438 -10.046875,7.546875 -10.703125,10.578125 l -1.34375,6.3125 H 31.921875 L 30.046875,0 H 4.140625 Z m 0,0"
             id="path2457" />
        </g>
      </g>
      <path
         style="color:#000000;fill:#1c1c19;-inkscape-stroke:none"
         d="m 1186.9138,525.73033 c -0.1718,0.004 -0.4843,-12.22656 -3.121,-14.45313 -2.2149,-1.87109 -8.1797,-2.02734 -14.1485,-2.33984 6.5274,-0.23828 12.707,-1.96484 13.5352,-3 2.1406,-2.66406 3.4961,-8.66016 3.75,-14.26563 0.3867,6.46485 1.082,13.40235 2.6718,14.21485 5.461,2.78906 14.0977,2.375 14.1055,2.57812 0,0.21094 -11.9844,0.26172 -14.2383,3.23438 -2.4531,3.23437 -2.3906,14.03125 -2.5547,14.03125"
         id="path2419" />
    </g>
  </g>
</svg>
